<?xml version="1.0" encoding="utf-8"?>
<!DOCTYPE svg PUBLIC "-//W3C//DTD SVG 1.1//EN" "http://www.w3.org/Graphics/SVG/1.1/DTD/svg11.dtd">
<svg version="1.1" id="Calque_1" xmlns="http://www.w3.org/2000/svg" xmlns:xlink="http://www.w3.org/1999/xlink" x="0px" y="0px"
	 width="256px" height="256px" viewBox="0 0 256 256" enable-background="new 0 0 256 256" xml:space="preserve">
<circle fill="#222222" cx="128" cy="128" r="128"/>
<path fill="#FFFFFF" d="M103.12,174.247v25.376H90.803h-6.826H82.84c-9.617,0-17.414-7.796-17.414-17.414V128.2H47.522
	l-12.689-12.689l12.689-12.688h16.519l1.093-0.046c14.227,0.431,25.669,12.139,25.669,26.469v43.676
	c0,0.732,0.593,1.325,1.325,1.325H103.12z M133.764,128.011h74.714l12.689-12.689l-12.689-12.688h-78.787
	c-14.601,0-26.481,11.88-26.481,26.481v8.221c0,14.601,11.88,26.481,26.481,26.481h39.956c2.855,0,5.177,2.322,5.177,5.176
	c0,2.932-2.322,5.254-5.177,5.254h-55.003v25.376h59.076c14.601,0,26.48-11.879,26.48-26.48v-8.221
	c0-14.601-11.879-26.481-26.48-26.481h-39.956c-2.855,0-5.177-2.322-5.177-5.177C128.587,130.333,130.908,128.011,133.764,128.011z
	 M78.115,56.377c-9.338,0-16.935,7.596-16.935,16.934s7.597,16.935,16.935,16.935s16.934-7.597,16.934-16.935
	S87.453,56.377,78.115,56.377z"/>
</svg>
